<svg width="240" height="113" viewBox="0 0 240 113" fill="none" xmlns="http://www.w3.org/2000/svg">
<path d="M26.5966 17.7186H26.1745V17.7029H22.6253V18.641H22.2032V13.2938H26.5966V17.7186ZM22.6253 13.6378V17.3589H26.1745V13.6378H22.6253ZM33.5699 18.3752L33.226 18.7036C32.6318 18.1094 32.0377 17.2964 31.4435 16.2645C30.8598 15.2221 30.4116 14.0964 30.0989 12.8873H30.0051C29.7549 14.1589 29.4006 15.2534 28.9419 16.1707C28.4833 17.0879 27.8839 18.0052 27.1439 18.9225L26.7686 18.5941C27.7172 17.5935 28.4468 16.3739 28.9576 14.9355C29.4787 13.4971 29.7393 12.1055 29.7393 10.7609V9.52572H30.1927V10.7609C30.1927 11.9075 30.5315 13.2365 31.209 14.7479C31.8865 16.2593 32.6735 17.4684 33.5699 18.3752ZM29.0983 5.72637L29.5673 5.85145C29.4318 6.4977 29.239 7.17523 28.9888 7.88402H33.0383L33.4918 8.18109C33.325 8.73353 33.1269 9.30161 32.8976 9.88533C32.5015 10.7505 32.1992 11.3655 31.9908 11.7303C31.9491 11.699 31.8918 11.6521 31.8188 11.5896C31.7458 11.5166 31.6885 11.4645 31.6468 11.4332C32.2409 10.2866 32.6892 9.21301 32.9914 8.21236H28.8794C28.4624 9.36936 28.0142 10.271 27.5348 10.9172L27.1908 10.6358C28.1602 9.19738 28.796 7.5609 29.0983 5.72637ZM27.7693 12.8404L27.4722 13.2C26.826 12.6475 26.2422 11.9648 25.7211 11.1518C25.1999 10.3283 24.7986 9.48402 24.5172 8.61888C24.2045 9.57783 23.7875 10.4743 23.2664 11.3081C22.7452 12.142 22.1615 12.8247 21.5152 13.3563L21.2338 13.0436C22.7556 11.6469 23.7093 10.0677 24.095 8.30617H24.7986C25.08 9.15047 25.4813 9.98435 26.0025 10.8078C26.5341 11.6208 27.123 12.2984 27.7693 12.8404ZM23.3289 5.88272L23.7198 6.02344C23.5217 6.57588 23.2194 7.1648 22.8129 7.79021C22.4064 8.4052 21.9895 8.91594 21.5621 9.32246L21.2338 8.96285C22.1927 8.06643 22.8911 7.03972 23.3289 5.88272ZM27.3002 8.57197L26.9719 8.94721C26.0963 8.04038 25.4449 7.06578 25.0175 6.02344L25.3458 5.85145C25.7628 6.82083 26.4142 7.72767 27.3002 8.57197Z" fill="white"/>
<path d="M94.3353 6.17979V11.2612C94.3353 11.6886 94.2675 11.9752 94.132 12.1212C94.0069 12.2567 93.7672 12.3244 93.4128 12.3244C93.0375 12.3244 92.7092 12.3036 92.4278 12.2619L92.3652 11.871C92.5945 11.9231 92.9177 11.9492 93.3346 11.9492C93.5639 11.9492 93.7099 11.9075 93.7724 11.8241C93.8454 11.7303 93.8818 11.5739 93.8818 11.355V10.1668H90.3327C90.218 11.0736 89.9157 11.8554 89.4258 12.512C89.3737 12.4808 89.3059 12.4286 89.2226 12.3557C89.1496 12.2827 89.0975 12.2358 89.0662 12.215C89.3893 11.7876 89.6187 11.3081 89.7542 10.7765C89.8897 10.2345 89.9574 9.48924 89.9574 8.5407V6.17979H94.3353ZM94.945 18.5941H83.1248V18.2658H88.7379V16.155H84.36V15.7954H88.7379V13.9348C87.4141 14.0286 85.9131 14.086 84.2349 14.1068L84.1255 13.7316C84.2089 13.7212 84.3079 13.7159 84.4226 13.7159C88.2271 13.7159 91.2395 13.4971 93.4597 13.0593L93.6786 13.372C92.4903 13.6013 90.9893 13.7837 89.1757 13.9192V15.7954H93.6317V16.155H89.1757V18.2658H94.945V18.5941ZM88.7379 11.2143V11.5896C88.3939 11.6417 87.7581 11.6677 86.8304 11.6677C86.3509 11.6677 85.8401 11.6417 85.2981 11.5896C85.1105 11.5687 84.9594 11.5479 84.8447 11.527C84.7301 11.4957 84.5998 11.4541 84.4538 11.4019C84.3079 11.3394 84.1985 11.2456 84.1255 11.1205C84.063 10.9954 84.0317 10.8443 84.0317 10.6671V7.63386H83.0623V7.32116H86.205V5.82018H86.6584V7.32116H88.988V7.63386H84.4851V10.3544C84.4851 10.8234 84.7405 11.0997 85.2512 11.183C85.5327 11.2247 86.0486 11.2456 86.7991 11.2456C87.7164 11.2456 88.3626 11.2352 88.7379 11.2143ZM90.4108 8.5407C90.4108 9.0306 90.3952 9.45275 90.3639 9.80715H93.8818V8.32181H90.4108V8.5407ZM90.4108 6.50813V7.9622H93.8818V6.50813H90.4108Z" fill="white"/>
<path d="M155.21 18.7661H154.741V17.5309H146.751V18.9381H146.282V8.35308H149.566C149.91 7.3837 150.175 6.50292 150.363 5.71073L150.785 5.85145C150.577 6.70617 150.311 7.54005 149.988 8.35308H155.21V18.7661ZM146.751 12.9498V17.187H154.741V12.9498H146.751ZM146.751 8.74396V12.6058H154.741V8.74396H146.751Z" fill="white"/>
<path d="M216.648 18.8286H216.163V18.3127H208.689V18.9381H208.236V14.4821H216.648V18.8286ZM218.289 13.3407H206.594V12.9498H212.207V11.7615H207.61V11.355H212.207V10.198H207.923V9.83842H212.207V8.58761H206.625V8.24363H212.207V7.03972H207.939V6.68011H212.207V5.75764H212.629V6.68011H216.804V8.24363H218.289V8.58761H216.804V10.198H212.629V11.355H217.32V11.7615H212.629V12.9498H218.289V13.3407ZM208.689 16.5615V17.9062H216.163V16.5615H208.689ZM208.689 14.8886V16.155H216.163V14.8886H208.689ZM212.629 9.83842H216.366V8.58761H212.629V9.83842ZM216.366 7.03972H212.629V8.24363H216.366V7.03972Z" fill="white"/>
<path d="M27.299 47.4513C19.4189 47.4513 14.4657 43.6801 14.4657 37.77C14.4657 31.8599 19.4189 28.0324 27.299 28.0324C35.1792 28.0324 40.1324 31.8599 40.1324 37.77C40.1324 43.6801 35.1792 47.4513 27.299 47.4513ZM27.299 31.0156C21.8955 31.0156 18.1243 33.5485 18.1243 37.77C18.1243 41.9915 21.8955 44.5244 27.299 44.5244C32.7025 44.5244 36.4737 41.9915 36.4737 37.77C36.4737 33.5485 32.7025 31.0156 27.299 31.0156ZM52.3466 54.7686C52.7406 55.3877 52.7406 56.7386 52.3466 57.3578H13.7902C12.1016 57.3578 9.00586 58.2021 8.443 58.2021C7.31726 58.2021 3.09577 56.5698 1.97003 56.0069C1.97003 54.9937 2.25147 54.0931 2.81433 54.0931C3.94007 54.0931 8.16156 54.656 13.7902 54.656H17.4489V50.9411C17.4489 50.2094 17.1111 49.8716 16.7171 49.7028L15.8728 49.3088C15.8728 48.8585 16.2106 47.395 16.7734 47.395C17.2237 47.395 19.5315 47.6202 20.4321 47.789C20.9949 47.9016 21.1075 48.2393 21.1075 48.8585C21.1075 49.4214 21.1075 50.0968 21.0512 51.2788L20.9949 54.656H34.56L34.6163 51.0537C34.6163 50.4345 34.56 50.2094 34.2223 49.9842L33.4906 49.4776C33.4906 48.9148 33.9408 47.5639 34.3911 47.5639C35.1229 47.5639 36.6989 47.8453 37.5995 48.0705C38.1061 48.183 38.3875 48.4645 38.3875 49.0836C38.3875 49.6465 38.2186 50.6034 38.1623 51.2225L38.0498 54.656H42.215C44.2976 54.656 47.3371 53.8117 48.4628 53.8117C50.1514 53.8117 51.9526 54.1494 52.3466 54.7686ZM41.4833 63.2116C42.1024 63.4367 42.3276 63.7745 42.3276 64.7313C42.3276 65.6882 42.1024 66.7576 42.1024 67.8271L41.9336 75.0318C41.8773 76.9455 41.3707 79.591 40.5264 80.5479H38.8378C38.5564 79.8161 38.3312 78.5216 38.3312 76.4389V66.2511H21.4452C18.9123 66.2511 17.3363 66.8702 16.3794 66.8702C15.7603 66.8702 11.3136 65.5756 10.413 65.069C10.413 64.6188 10.8633 62.9864 11.3699 62.9864C11.9891 62.9864 16.5483 63.4367 21.4452 63.4367H35.0103C36.7552 63.4367 37.5432 62.9864 39.2318 62.9864C40.1887 62.9864 40.9204 62.9864 41.4833 63.2116Z" fill="white"/>
<path d="M115.329 43.9053C115.836 44.4681 115.892 45.9316 115.385 46.607H104.466V51.3914C104.466 54.1494 103.903 57.9769 103.058 59.1589H101.37C100.807 58.0895 100.638 55.444 100.638 53.1926V31.2971C100.638 30.5653 100.3 30.2276 99.9064 29.9462L96.867 27.8636C96.867 26.9067 97.7113 25.9498 98.1616 25.9498C99.2873 25.9498 103.058 27.1881 103.959 27.5821C104.578 27.8636 104.747 28.145 104.747 28.7642C104.747 29.327 104.578 30.9593 104.578 31.5785L104.522 44.0178H105.985C108.181 44.0178 110.601 43.1173 111.727 43.1173C113.359 43.1173 114.822 43.3424 115.329 43.9053ZM90.788 51.3914C91.0131 51.6165 90.8443 53.0237 90.6754 53.6429H72.1008C71.8757 54.3183 71.538 54.9374 71.0314 55.444H69.5679C69.1176 54.5434 69.0051 53.3051 68.8362 50.9411L67.9356 36.4754C67.8793 35.8563 65.9656 35.2371 65.459 34.8431C65.5716 34.3365 66.1345 32.7605 66.4159 32.7605C67.7668 32.7605 70.75 33.0419 72.2134 33.0419H85.103C86.0599 33.0419 86.7916 32.6479 87.2982 32.6479C88.1425 32.6479 89.6623 32.8168 90.1688 32.8731C90.9006 32.9294 91.2383 33.6611 91.182 34.224L89.606 49.1399L89.3245 50.7722C89.606 50.9411 90.6191 51.2225 90.788 51.3914ZM86.1725 50.8848L86.7354 35.8H72.1571L72.326 50.8848H86.1725ZM92.0826 58.7649C99.231 58.7649 103.847 63.1553 103.847 69.572C103.847 75.9887 99.231 80.3227 92.0826 80.3227C84.9342 80.3227 80.3187 75.9887 80.3187 69.572C80.3187 63.1553 84.9342 58.7649 92.0826 58.7649ZM92.0826 77.3958C96.8107 77.3958 100.3 74.3001 100.3 69.572C100.3 64.8439 96.8107 61.6918 92.0826 61.6918C87.3545 61.6918 83.8647 64.8439 83.8647 69.572C83.8647 74.3001 87.3545 77.3958 92.0826 77.3958Z" fill="white"/>
<path d="M170.431 27.5821C171.05 27.8636 171.219 28.145 171.219 28.7642C171.219 29.327 171.05 30.9593 171.05 31.5785L170.938 50.8285C170.938 53.5303 170.375 57.4141 169.531 58.5961H167.955C167.392 57.5266 167.223 54.8812 167.223 52.6297V45.0873H160.3L160.243 50.2657C160.243 52.9111 159.68 56.8512 158.836 58.0332H157.26C156.697 56.9638 156.528 54.3183 156.528 52.0668V34.1114C156.528 33.3797 156.191 33.0419 155.797 32.7605L152.757 30.6779C152.757 29.721 153.602 28.7642 154.052 28.7642C155.065 28.7642 158.836 30.0025 159.737 30.3965C160.356 30.6779 160.525 30.9593 160.525 31.5785C160.525 32.1414 160.356 33.7737 160.356 34.3928L160.3 42.3855H167.223V31.2971C167.223 30.5653 166.885 30.2276 166.491 29.9462L163.452 27.8636C163.452 26.9067 164.296 25.9498 164.746 25.9498C165.759 25.9498 169.531 27.1881 170.431 27.5821ZM149.324 52.8548C149.324 54.3183 148.479 55.2752 147.973 55.5566H133.507C133.226 56.4009 132.55 57.2452 132.156 57.5266H130.58C130.299 56.7949 130.074 55.5003 130.074 53.9243L129.905 37.0383C129.905 36.3629 129.68 36.2503 129.398 36.0814C128.723 35.6874 128.047 35.4623 126.922 35.012C126.922 34.3928 127.653 33.3234 128.273 33.3234C129.004 33.3234 131.65 33.5485 132.719 33.7737C133.563 33.9425 133.845 34.224 133.845 34.7305C133.845 35.0683 133.732 35.6874 133.732 36.3066V41.7101H145.553V35.4623C145.553 34.7868 145.496 34.5617 145.159 34.2802C144.314 33.6048 143.357 33.0982 142.682 32.7042C142.682 32.0851 143.414 31.1282 144.033 31.1282C144.765 31.1282 147.41 31.6348 148.479 31.9162C149.324 32.1414 149.605 32.3665 149.605 32.8731C149.605 33.2108 149.493 33.83 149.493 34.4491L149.324 52.8548ZM145.553 52.8548V44.4118H133.732V52.8548H145.553ZM169.362 61.8044C169.981 62.0296 170.206 62.3673 170.206 63.3242C170.206 64.281 169.981 65.3505 169.981 66.4199L169.812 75.0318C169.756 76.8892 169.249 79.591 168.405 80.5479H166.716C166.435 79.8161 166.21 78.5216 166.21 76.4389V64.8439H150.337C147.86 64.8439 146.284 65.4631 145.327 65.4631C144.708 65.4631 140.318 64.1685 139.417 63.6619C139.417 63.2116 139.868 61.5793 140.374 61.5793C140.993 61.5793 145.496 62.0296 150.337 62.0296H162.889C164.634 62.0296 165.422 61.5793 167.11 61.5793C168.067 61.5793 168.799 61.5793 169.362 61.8044Z" fill="white"/>
<path d="M230.149 27.5821C230.768 27.8636 230.937 28.145 230.937 28.7642C230.937 29.327 230.768 30.9593 230.768 31.5785L230.656 72.2174C230.656 75.2569 230.093 78.803 229.248 79.985H227.56C226.997 78.9156 226.828 76.2701 226.828 74.0186V46.3256L220.918 46.4382C219.849 46.4382 218.498 46.9447 217.766 46.9447C216.64 46.9447 213.995 45.5939 213.15 45.031C213.15 44.243 213.376 43.455 213.826 43.455C214.107 43.455 218.892 43.7364 220.918 43.6801L226.828 43.5675V31.2971C226.828 30.5653 226.49 30.2276 226.096 29.9462L223.057 27.8636C223.057 26.9067 223.901 25.9498 224.351 25.9498C225.477 25.9498 229.248 27.1881 230.149 27.5821ZM214.839 55.5003C215.852 56.8512 217.316 59.6092 217.822 60.735C218.272 61.7481 216.246 62.5361 215.571 62.5361C212.588 58.6524 207.803 52.4608 204.145 47.9016C199.248 55.9506 192.549 63.2116 188.215 64.1685C187.878 63.9433 186.414 62.7613 186.865 62.5361C192.718 59.3278 201.386 46.7196 204.876 37.2634C205.27 36.194 205.158 35.9126 204.933 35.7437L202.625 34.0551C202.737 33.6048 203.3 32.3102 203.694 32.3102C204.933 32.3102 207.578 33.2671 209.21 34.1114C209.773 34.3928 210.111 34.7868 210.111 35.1245C210.111 35.5748 209.717 36.194 209.267 37.4886C208.366 40.0215 207.128 42.7232 205.664 45.3687L210.28 50.9974C211.574 52.5171 213.826 54.2057 214.839 55.5003Z" fill="white"/>
<path d="M16.6491 88.0423C16.9774 88.1127 17.3761 88.1596 17.7514 88.1596H28.4928C28.868 88.1596 29.2667 88.1127 29.595 88.0423L29.8765 91.5368C29.6888 91.6541 29.3371 91.7479 29.1025 91.7479C29.0087 91.7479 28.4693 90.0124 28.2582 89.2619H26.382L23.8491 89.1915V102.982C24.6465 103.099 25.5612 103.31 25.5612 103.38C25.5612 103.568 25.5143 103.896 25.4204 104.107H20.7533C20.6595 103.873 20.6361 103.498 20.7533 103.38C20.8237 103.287 21.6445 103.099 21.9729 103.029C22.2074 102.982 22.3247 102.911 22.3481 102.747C22.395 102.091 22.395 100.73 22.395 100.378V89.1915L19.8387 89.2619H17.9625C17.7514 90.0124 17.2354 91.7479 17.1416 91.7479C16.8836 91.7479 16.5553 91.6541 16.3677 91.5368L16.6491 88.0423ZM53.1334 103.076C53.8839 103.169 54.5405 103.31 54.5405 103.404C54.5405 103.568 54.4702 103.896 54.3764 104.107H50.3425C50.2956 103.873 50.2487 103.451 50.3425 103.357C50.4128 103.287 50.9288 103.146 51.4448 103.029C51.5855 103.005 51.6793 102.935 51.6793 102.771C51.7028 102.114 51.7262 101.035 51.7262 100.449V96.2977C51.7262 94.9843 51.5855 93.5068 49.334 93.5068C47.9034 93.5068 46.3086 94.187 44.9953 95.6645V103.076C45.7457 103.169 46.4024 103.31 46.4024 103.404C46.4024 103.568 46.3321 103.896 46.2617 104.107H42.2278C42.1575 103.873 42.134 103.451 42.2278 103.357C42.2982 103.287 43.0018 103.099 43.3301 103.029C43.4708 103.005 43.5646 102.935 43.5646 102.771C43.5881 102.114 43.6115 101.035 43.6115 100.449V88.3472C43.6115 87.9016 43.6115 87.6905 43.1659 87.5967L42.2044 87.4326C42.1575 87.2215 42.134 86.94 42.2044 86.729C42.7907 86.5179 43.9868 86.2834 44.5966 86.2365L44.9953 86.4006V94.3746H45.1125C46.1914 93.155 48.0441 92.2169 49.7562 92.2169C50.835 92.2169 51.7731 92.6156 52.4298 93.4365C53.1099 94.2808 53.1334 95.2189 53.1334 96.5322V103.076ZM68.6897 98.6899C68.6897 100.965 69.7216 103.24 73.005 103.24C74.4122 103.24 75.5848 102.982 76.5698 102.395L76.8982 102.958C75.8428 104.061 74.1307 104.506 72.5594 104.506C69.276 104.506 67.2122 102.278 67.2122 98.6899C67.2122 94.6795 69.4167 92.2169 72.747 92.2169C74.2246 92.2169 75.5145 92.8032 76.3119 93.8586C76.8982 94.656 77.1327 95.5707 77.1327 96.7199C77.1327 97.2827 77.1092 97.9394 77.0154 98.385H68.6897V98.6899ZM68.7132 97.2593H75.7959V96.7433C75.7959 94.5622 74.5998 93.3427 72.536 93.3427C70.0734 93.3427 68.8773 95.3127 68.7132 97.2593ZM118.617 89.7075C120.423 91.0208 121.431 93.155 121.431 95.8521C121.431 98.7133 120.212 101.199 118.289 102.56C116.225 104.014 114.067 104.107 113.434 104.107H107.031C106.961 103.873 106.914 103.498 107.031 103.38C107.102 103.287 107.759 103.099 108.063 103.029C108.298 102.958 108.415 102.911 108.439 102.747C108.486 102.091 108.486 100.918 108.486 100.378V89.2853C107.688 89.1681 106.961 88.957 106.961 88.8866C106.961 88.699 107.008 88.3707 107.102 88.1596H112.074C114.02 88.1596 116.436 88.1596 118.617 89.7075ZM109.94 103.005H113.059C116.835 103.005 119.907 100.566 119.907 96.2039C119.907 93.7883 119.25 91.8651 117.749 90.6925C115.944 89.2853 114.067 89.2619 112.215 89.2619H109.94V103.005ZM135.851 98.6899C135.851 100.965 136.883 103.24 140.166 103.24C141.573 103.24 142.746 102.982 143.731 102.395L144.059 102.958C143.004 104.061 141.292 104.506 139.72 104.506C136.437 104.506 134.373 102.278 134.373 98.6899C134.373 94.6795 136.578 92.2169 139.908 92.2169C141.386 92.2169 142.675 92.8032 143.473 93.8586C144.059 94.656 144.294 95.5707 144.294 96.7199C144.294 97.2827 144.27 97.9394 144.176 98.385H135.851V98.6899ZM135.874 97.2593H142.957V96.7433C142.957 94.5622 141.761 93.3427 139.697 93.3427C137.234 93.3427 136.038 95.3127 135.874 97.2593ZM160.63 104.506C159.575 104.506 158.613 104.272 157.91 104.061L157.089 103.803C156.972 103.756 156.972 103.709 156.972 103.615V100.918C157.159 100.848 157.347 100.848 157.535 100.894L158.051 102.114C158.332 102.864 159.106 103.521 161.006 103.521C162.929 103.521 163.726 102.56 163.726 101.387C163.726 100.097 162.741 99.628 161.615 99.2058L159.786 98.5257C158.356 98.0098 157.089 97.0013 157.089 95.3361C157.089 93.9055 158.215 92.2169 160.865 92.2169C161.967 92.2169 162.694 92.428 163.539 92.7094L164.406 93.0847C164.5 93.1316 164.524 93.1785 164.524 93.2723V95.5472C164.383 95.5941 164.195 95.5941 164.008 95.5472L163.468 94.5153C163.21 93.9524 162.624 93.2254 160.795 93.2254C159.083 93.2254 158.449 94.0931 158.449 95.1251C158.449 96.3681 159.294 96.8137 160.49 97.2593L162.296 97.8925C164.055 98.5492 165.063 99.3935 165.063 101.129C165.063 102.7 163.984 104.506 160.63 104.506ZM179.806 89.5668C179.126 89.3322 178.61 88.9335 178.61 88.2769C178.61 87.6436 179.126 87.1042 179.806 87.1042C180.486 87.1042 181.002 87.6436 181.002 88.2769C181.002 88.9335 180.486 89.3322 179.806 89.5668ZM177.812 93.5068C177.765 93.2957 177.742 93.0378 177.812 92.8032C178.399 92.6156 179.689 92.3576 180.298 92.3107L180.697 92.4749V103.076C181.471 103.169 182.175 103.31 182.175 103.404C182.175 103.568 182.104 103.896 182.01 104.107H177.836C177.789 103.873 177.742 103.451 177.836 103.357C177.906 103.287 178.657 103.099 179.008 103.029C179.149 103.005 179.243 102.935 179.243 102.771C179.266 102.114 179.29 101.035 179.29 100.449V94.4215C179.29 93.9993 179.29 93.7648 178.844 93.6944L177.812 93.5068ZM201.789 92.2169C202.586 92.2169 202.914 92.5922 202.914 93.2488C202.914 93.8117 202.656 94.3042 202.258 94.4684H202.07C201.789 94.14 201.343 93.7414 201.038 93.5537C199.983 93.9055 198.669 94.5387 197.661 95.6645V103.076C198.364 103.146 199.303 103.31 199.303 103.404C199.303 103.568 199.256 103.896 199.162 104.107H194.87C194.823 103.873 194.776 103.451 194.87 103.357C194.94 103.287 195.644 103.099 195.972 103.029C196.113 103.005 196.207 102.935 196.207 102.771C196.23 102.114 196.254 101.035 196.254 100.449V94.4215C196.254 93.9993 196.254 93.7648 195.808 93.6944L194.87 93.5068C194.8 93.2957 194.8 93.0378 194.87 92.8032C195.456 92.6156 196.652 92.3576 197.262 92.3107L197.661 92.4749V94.4918H197.731C198.529 93.5772 200.405 92.2169 201.789 92.2169ZM216.383 98.6899C216.383 100.965 217.415 103.24 220.698 103.24C222.105 103.24 223.278 102.982 224.263 102.395L224.591 102.958C223.536 104.061 221.824 104.506 220.252 104.506C216.969 104.506 214.905 102.278 214.905 98.6899C214.905 94.6795 217.11 92.2169 220.44 92.2169C221.917 92.2169 223.207 92.8032 224.005 93.8586C224.591 94.656 224.826 95.5707 224.826 96.7199C224.826 97.2827 224.802 97.9394 224.708 98.385H216.383V98.6899ZM216.406 97.2593H223.489V96.7433C223.489 94.5622 222.293 93.3427 220.229 93.3427C217.766 93.3427 216.57 95.3127 216.406 97.2593Z" fill="white"/>
</svg>
